<?xml version="1.0" encoding="utf-8"?>
<!-- Generator: Adobe Illustrator 27.9.0, SVG Export Plug-In . SVG Version: 6.00 Build 0)  -->
<svg version="1.0" id="Layer_1" xmlns="http://www.w3.org/2000/svg" xmlns:xlink="http://www.w3.org/1999/xlink" x="0px" y="0px"
	 viewBox="0 0 368 244.9" style="enable-background:new 0 0 368 244.9;" xml:space="preserve">
<style type="text/css">
	.st0{fill:#FFFFFF;}
</style>
<g>
	<g id="XMLID_1_">
		<g>
			<path class="st0" d="M360.1,196.4h-10.2h-5.3c-0.5-2.6-1.2-4.4-2.3-5.4c-1.7-1.7-4.5-2.5-8.4-2.5c-3.9,0-6.5,0.6-8,1.9
				c-1.1,1-1.7,2.3-1.7,4c0,2.4,3.3,4.2,9.7,5.7c7.4,1.6,12.7,3,16,4.1c0.9,0.3,1.6,0.6,2.1,0.9c6.6,3.1,9.8,7.8,9.8,14.1
				c0,7.7-3.2,13.3-9.6,16.9c-0.8,0.4-1.6,0.8-2.4,1.2c-4.1,1.8-8.9,2.7-14.3,2.7c-8.1,0-14.6-1.4-19.6-4.3c-3.1-1.8-5.5-4.1-7-6.9
				c-1.6-2.8-2.3-6-2.3-9.7h16.3c0,2.8,1,5,3,6.5c2,1.6,5.4,2.4,10.1,2.4c3.6,0,6.3-0.8,8-2.2c1.4-1.2,2-2.5,2-4
				c0-2.5-3.2-4.5-9.6-5.9c-9.5-2-15.5-3.7-18-4.9c-6.5-3-9.7-7.8-9.7-14.3c0-5.2,1.7-9.7,5.1-13.3c4.3-4.6,10.7-6.8,19.2-6.8
				c7,0,12.6,1,16.9,3c0.4,0.2,0.7,0.3,1,0.5c3,1.7,5.3,3.9,6.9,6.6C359.3,189.3,360.1,192.6,360.1,196.4z"/>
			<path class="st0" d="M351.8,158.5c0-0.3-0.1-0.6-0.2-0.8c-0.2-0.3-0.4-0.4-0.7-0.5c-0.2-0.1-0.5-0.1-1-0.2h-0.6h-1.9v3h2
				c0.2,0,0.4,0,0.5,0c0.7-0.1,1.2-0.2,1.4-0.4C351.6,159.3,351.8,158.9,351.8,158.5z M353.1,156.9c0.3,0.4,0.5,0.9,0.5,1.4
				c0,0.7-0.3,1.4-0.8,1.9c-0.5,0.5-1.2,0.9-2.1,0.9c0.4,0.2,0.6,0.3,0.9,0.5l1.5,2l1.2,2h-1.9l-0.9-1.6c-0.6-1-1.1-1.8-1.5-2.1
				c-0.1-0.1-0.1-0.1-0.2-0.2l-1.3-0.4h-1v4.3h-1.6v-10.1h3.5c0.2,0,0.4,0.1,0.6,0.1c0.9,0,1.5,0.1,1.9,0.3
				C352.3,156.1,352.8,156.4,353.1,156.9z"/>
			<path class="st0" d="M357.6,160.5c0-1.4-0.3-2.7-1-3.9c-0.7-1.2-1.7-2.2-2.9-2.9c-1.2-0.6-2.5-1-3.8-1c-0.1,0-0.1,0-0.1,0
				c-1.3,0-2.6,0.4-3.8,1c-1.2,0.7-2.2,1.7-2.9,2.9c-0.7,1.2-1.1,2.5-1.1,3.9c0,1.3,0.4,2.6,1.1,3.9c0.6,1.2,1.6,2.1,2.8,2.8
				c1.2,0.7,2.5,1,3.9,1c0,0,0,0,0.1,0c1.3,0,2.6-0.3,3.9-1c1.2-0.7,2.2-1.7,2.8-2.8C357.3,163.2,357.6,161.9,357.6,160.5z
				 M359.2,160.5c0,1.6-0.4,3.1-1.2,4.6c-0.8,1.5-1.9,2.6-3.4,3.4c-1.5,0.9-3,1.2-4.6,1.2c-0.1,0-0.1,0-0.1,0
				c-1.6,0-3.1-0.4-4.6-1.2c-1.5-0.8-2.6-1.9-3.4-3.4c-0.9-1.5-1.2-3-1.2-4.6c0-1.7,0.4-3.2,1.2-4.7c0.9-1.5,2-2.6,3.5-3.4
				c1.5-0.8,3-1.2,4.5-1.2c0,0,0,0,0.1,0c1.6,0,3.1,0.4,4.6,1.2c1.5,0.8,2.7,1.9,3.5,3.4C358.8,157.3,359.2,158.9,359.2,160.5z"/>
			<polygon class="st0" points="268.1,84.9 312.1,158.1 268.1,158.1 241.5,158.1 199.5,88.2 167.7,35.2 199.5,16.1 219.5,4.1 			"/>
			<path class="st0" d="M300,209v30h-14.6v-3.3c-4.9,3.2-10.8,5.1-17.1,5.1c-0.1,0-0.1,0-0.2,0c-17.4-0.1-31.6-14.3-31.6-31.8
				c0-17.4,14.2-31.7,31.6-31.8c0.1,0,0.1,0,0.2,0c6.3,0,12.2,1.9,17.1,5.1v-3.5H300V209z M285.4,212.3v-6.6
				c-1.6-8-8.7-14.1-17.1-14.1c-0.1,0-0.1,0-0.2,0c-9.6,0.1-17.3,7.9-17.3,17.4c0,9.6,7.8,17.4,17.3,17.5c0.1,0,0.1,0,0.2,0
				C276.8,226.5,283.9,220.3,285.4,212.3z"/>
			<path class="st0" d="M231.4,209v30h-14.6v-3.3c-5,3.2-10.8,5.1-17.1,5.1c-0.1,0-0.1,0-0.2,0c-17.4-0.1-31.6-14.3-31.6-31.8
				c0-17.4,14.2-31.7,31.6-31.8c0.1,0,0.1,0,0.2,0c6.3,0,12.2,1.9,17.1,5.1v-24.1h14.6V209z M216.8,212.3v-6.6
				c-1.6-8-8.7-14.1-17.1-14.1c-0.1,0-0.1,0-0.2,0c-9.6,0.1-17.3,7.9-17.3,17.4c0,9.6,7.8,17.4,17.3,17.5c0.1,0,0.1,0,0.2,0
				C208.1,226.5,215.3,220.3,216.8,212.3z"/>
			<polygon class="st0" points="199.5,129.3 216.8,158.1 199.5,158.1 146.2,158.1 107,92.9 105.3,90.1 107,89.1 157.2,58.9 			"/>
			<rect x="146.3" y="177.2" class="st0" width="15.9" height="61.8"/>
			<rect x="146.3" y="158.4" class="st0" width="15.9" height="14"/>
			<path class="st0" d="M139,209v30h-14.6v-3.3c-5,3.2-10.9,5.1-17.2,5.1c-0.1,0-0.1,0-0.2,0c-17.4-0.1-31.6-14.3-31.6-31.8
				c0-17.4,14.2-31.7,31.6-31.8c0.1,0,0.1,0,0.2,0c6.3,0,12.2,1.9,17.2,5.1v-24.1H139V209z M124.4,212.3v-6.6
				c-1.6-8-8.7-14.1-17.2-14.1c-0.1,0-0.1,0-0.2,0c-9.6,0.1-17.3,7.9-17.3,17.4c0,9.6,7.8,17.4,17.3,17.5c0.1,0,0.1,0,0.2,0
				C115.7,226.5,122.8,220.3,124.4,212.3z"/>
			<polygon class="st0" points="107,134 121.5,158.1 107,158.1 50.9,158.1 43,144.9 94.8,113.8 			"/>
			<path class="st0" d="M69.7,209v30H55.1v-3.3c-5,3.2-10.9,5.1-17.2,5.1c-0.1,0-0.1,0-0.2,0C20.3,240.7,6.1,226.4,6.1,209
				c0-17.4,14.2-31.7,31.6-31.8c0.1,0,0.1,0,0.2,0c6.3,0,12.2,1.9,17.2,5.1v-3.5h14.6V209z M55.1,212.3v-6.6
				c-1.6-8-8.7-14.1-17.2-14.1c-0.1,0-0.1,0-0.2,0c-9.5,0.1-17.3,7.9-17.3,17.4c0,9.6,7.8,17.4,17.3,17.5c0.1,0,0.1,0,0.2,0
				C46.4,226.5,53.5,220.3,55.1,212.3z"/>
		</g>
	</g>
</g>
</svg>
