<?xml version="1.0" encoding="utf-8"?>
<!-- Generator: Adobe Illustrator 27.9.0, SVG Export Plug-In . SVG Version: 6.00 Build 0)  -->
<svg version="1.0" id="Capa_1" xmlns="http://www.w3.org/2000/svg" xmlns:xlink="http://www.w3.org/1999/xlink" x="0px" y="0px"
	 viewBox="0 0 47 32" style="enable-background:new 0 0 47 32;" xml:space="preserve">
<style type="text/css">
	.st0{fill:#FFFFFF;}
</style>
<path class="st0" d="M25.8,26.6h-5.4c0.9,1.6,1.7,2.9,2.7,3.8C24.2,29.3,25.1,28,25.8,26.6z M34.9,26.6h-8.6
	c-0.3,1.4-0.3,2.6-0.3,3.5C28.6,30,31.9,28.9,34.9,26.6z M38.8,23.5H7.4c0.5,0.6,1,1.1,1.6,1.5h28C37.7,24.6,38.3,24.1,38.8,23.5z
	 M44.5,9.1c-3.9,0.3-9.5,2.9-13.2,7.1c-0.7,0.7-1.2,1.5-1.7,2.3h12.6C43.9,15.1,44.8,11.8,44.5,9.1z M28.6,18.5c0.1-1,0.2-1.9,0.2-3
	c0-5.9-2.7-12-5.6-14.8c-3,2.7-5.6,8.9-5.6,14.8c0,1.1,0,2,0.2,3H28.6L28.6,18.5z M20.1,30.2c0.1-1.2,0-2.4-0.1-3.5h-8.7
	C14.3,28.9,17.7,30,20.1,30.2L20.1,30.2z M16.7,18.5c-0.5-0.8-1.1-1.6-1.7-2.3c-3.7-4.3-9.3-6.9-13.2-7.1c-0.3,2.7,0.6,6.1,2.3,9.5
	H16.7L16.7,18.5z M41.3,20.1H4.9c0.3,0.5,0.9,1.3,1.1,1.6h34.2C40.6,21.3,41,20.7,41.3,20.1C41.3,20.1,41.3,20.1,41.3,20.1z"/>
</svg>
